<svg width="250" viewBox="0 0 737 206" fill="none" xmlns="http://www.w3.org/2000/svg">
<g clip-path="url(#clip0_1_101)">
<path d="M95.1792 0.181615C114.227 -0.989211 133.562 3.50199 150.052 13.0919C177.706 29.1875 197.482 58.523 201.229 90.3794C203.602 109.787 200.416 129.469 192.041 147.137C178.201 176.665 149.686 199.017 117.404 204.412C97.7753 207.95 77.1651 204.845 59.164 196.398C29.8284 182.851 7.83194 154.601 1.8506 122.854C-1.90331 103.368 0.0671027 82.8144 7.58272 64.4291C19.5765 34.7301 45.7631 10.7294 77.0561 3.03469C82.9966 1.52894 89.0633 0.573876 95.1792 0.181615Z" fill="#3F2E39"/>
<path d="M48.8554 23.0583C78.8088 1.29804 122.275 1.13968 152.532 22.4222C146.011 29.6108 140.569 37.9208 137.14 47.02C141.956 38.6217 147.48 30.387 155.089 24.2499C157.99 26.2701 160.733 28.5093 163.293 30.9477C150.793 42.9234 139.539 56.4333 131.057 71.5944C129.772 74.1671 128.292 76.706 127.568 79.5072C139.066 63.1519 154.404 49.5979 171.758 39.7095C179.074 48.0615 184.855 57.6414 188.835 68.0066C171.571 73.0118 154.871 81.2569 141.797 93.718C139.396 91.6542 136.374 90.5586 133.279 90.1147C127.174 87.3135 121.27 84.1437 115.019 81.6282C115.019 77.1993 113.827 72.2356 116.278 68.235C117.246 66.0699 117.599 63.7127 118.046 61.4074C121.192 60.5014 122.597 57.3835 123.705 54.6187C128.638 52.939 135.024 50.034 135.143 44.0189C137.309 38.8761 133.845 32.7572 128.363 31.9031C124.728 31.0542 120.982 31.9758 117.316 31.5708C116.351 25.9088 114.562 20.0287 110.504 15.7893C108.427 13.6865 105.278 14.3511 102.822 15.2934C99.4475 16.5032 96.3323 13.3594 92.9574 14.5484C87.5056 17.404 85.6572 24.0915 83.8711 29.5614C78.0533 27.6274 70.8908 26.0438 65.7558 30.4649C62.0278 33.3569 60.291 38.8605 62.5912 43.1596C65.639 48.9566 71.7423 52.3601 77.6484 54.6031C78.6193 57.3419 80.1951 60.4442 83.2766 61.1815C83.7143 64.2997 84.6248 67.333 85.9765 70.1769C86.1453 73.8555 86.044 77.5757 85.9428 81.2621C81.7138 83.2455 77.1162 84.5773 72.8742 86.6412C68.6037 90.5145 62.0538 89.4968 57.6612 93.1703L57.5652 93.1521C44.9275 81.6204 29.268 73.5154 13.0894 68.1052C17.1548 57.8638 22.8454 48.1752 30.1507 39.9171C46.6461 50.4676 62.1187 63.3441 73.0066 79.7875C70.1509 70.5014 64.1073 62.586 58.5413 54.7563C52.4302 46.4904 45.7557 38.6269 38.3413 31.4981C40.9222 29.053 43.6609 26.78 46.5397 24.6938C52.5729 30.1248 57.2329 36.8668 61.5735 43.6451C58.3051 36.2852 54.3175 29.037 48.8554 23.0583Z" fill="#FED485"/>
<path d="M92.9029 17.3599C96.1713 15.8023 99.5436 19.0032 103.028 17.9362C106.241 20.4648 106.955 24.7379 107.057 28.5801C100.187 27.5417 93.2248 28.4789 86.5347 30.1092C87.6225 25.4856 89.4164 20.7114 92.9029 17.3599Z" fill="#FFFFFE"/>
<path d="M103.022 17.9362C103.949 17.5442 104.964 17.3911 105.878 16.9368L105.92 17.3158C110.219 19.7717 111.95 24.9794 112.506 29.6341C110.673 29.4342 108.871 28.8865 107.054 28.5827C106.958 24.7379 106.236 20.4648 103.022 17.9362Z" fill="#CDBDA6"/>
<path d="M105.87 16.9367C106.48 16.7939 107.117 16.8283 107.708 17.0357C108.298 17.2432 108.817 17.615 109.204 18.1076C112.184 21.5448 113.596 26.0204 114.507 30.4025C113.84 30.2728 113.187 30.0771 112.558 29.8184L112.498 29.6341C111.942 24.9794 110.211 19.7691 105.912 17.3158L105.87 16.9367Z" fill="#FFFFFE"/>
<path d="M73.8841 17.2976C76.9137 15.9191 79.1619 20.7971 76.0648 22.0666C73.0014 23.7436 70.5196 18.4113 73.8841 17.2976Z" fill="#FDAB2B"/>
<path d="M125.53 17.2716C128.646 15.9736 130.556 20.8568 127.529 22.1211C124.427 23.5775 122.275 18.3568 125.53 17.2716Z" fill="#FDAB2B"/>
<path d="M152.532 22.4222C153.465 22.9054 154.326 23.5171 155.089 24.2395C147.48 30.3766 141.956 38.6113 137.14 47.0096C140.569 37.9208 146.011 29.6108 152.532 22.4222Z" fill="#FDAB2B"/>
<path d="M46.5397 24.6938C47.2391 24.0526 48.0172 23.503 48.8554 23.0583C54.3071 29.0292 58.3051 36.2982 61.5761 43.6581C57.2329 36.8642 52.573 30.1144 46.5397 24.6938Z" fill="#FDAB2B"/>
<path d="M65.1457 35.0106C68.5024 29.0941 76.3529 29.2992 81.8826 31.6798C94.2918 35.6155 107.464 34.2292 120.26 34.1357C123.303 34.1357 126.514 33.5646 129.383 34.8963C125.629 36.062 121.867 37.1939 118.064 38.183C106.158 36.8097 93.8816 36.293 82.0565 38.6866C77.3498 39.8289 69.7226 42.2796 71.0518 48.5023C66.7631 45.7427 62.046 40.3014 65.1457 35.0106Z" fill="#FFFFFE"/>
<path d="M163.293 30.9477C166.325 33.6217 169.292 36.4929 171.758 39.7095C154.404 49.5979 139.066 63.1467 127.568 79.5072C128.292 76.706 129.772 74.1671 131.057 71.5943C139.526 56.4333 150.78 42.9234 163.293 30.9477Z" fill="#FFFFFE"/>
<path d="M30.1507 39.9171C32.5994 36.85 35.3427 34.0302 38.3413 31.4981C45.7557 38.6269 52.4302 46.4904 58.5413 54.7563C64.1073 62.586 70.1639 70.5014 73.0066 79.7876C62.1187 63.3441 46.6461 50.4676 30.1507 39.9171Z" fill="#FFFFFE"/>
<path d="M129.383 34.8963C133.178 36.1762 133.892 40.8465 132.399 44.1332C128.091 41.1633 123.207 39.1293 118.064 38.1622C121.867 37.1939 125.629 36.062 129.383 34.8963Z" fill="#CDBDA6"/>
<path d="M86.3919 40.6908C95.9299 39.3071 105.735 39.3927 115.304 40.5999C115.539 41.3273 115.628 42.0941 115.564 42.8559C105.743 41.9577 95.8338 41.8175 86.0337 42.9156C86.0708 42.1631 86.1909 41.4169 86.3919 40.6908Z" fill="#D9864E"/>
<path d="M86.0363 42.9156C95.8442 41.8201 105.746 41.9576 115.567 42.8559L115.738 42.9467C117.068 49.6072 116.794 56.4885 114.938 63.0221C114.419 64.3929 113.238 66.2387 111.519 65.6182C110.494 64.1826 111.615 62.586 112.379 61.3425C110.891 60.1119 109.004 59.2189 107.337 58.2272C107.384 58.6426 107.464 59.0527 107.506 59.4707C105.818 60.1639 104.024 60.6156 102.329 61.3113C99.7876 62.4224 97.459 60.3222 95.0394 59.8108C94.2035 59.7848 94.3281 59.0164 94.4475 58.4297C92.7289 59.263 91.0856 60.2469 89.3748 61.1062C91.6931 62.7418 89.8447 67.5419 87.3421 64.6343C84.0139 58.0559 84.4215 49.9743 86.0363 42.9156Z" fill="#FED485"/>
<path d="M91.0155 44.8081C92.9415 44.578 94.8931 44.9022 96.6412 45.7427C97.8302 46.3684 96.8826 48.4063 95.6028 47.8715C93.4636 47.3056 90.9299 47.0485 89.1126 48.6088C88.191 49.3876 86.8073 48.3128 87.1889 47.2277C87.812 45.7349 89.528 45.0703 91.0155 44.8081Z" fill="#3F2E39"/>
<path d="M108.671 44.8133C110.933 44.0605 116.441 46.3294 113.752 48.8632C111.156 47.643 108.227 47.0174 105.302 47.9883C102.503 46.21 106.981 44.6783 108.671 44.8133Z" fill="#3F2E39"/>
<path d="M83.1624 58.5543C80.0861 56.8149 77.6198 49.4369 82.5575 48.6295C82.1655 51.9655 82.9339 55.2443 83.1624 58.5543Z" fill="#FED485"/>
<path d="M119.001 48.5854C123.254 49.9198 121.223 56.9084 118.142 58.5283C118.412 55.2132 119.37 51.9473 119.001 48.5854Z" fill="#D9864E"/>
<path d="M92.5836 49.7485C94.3229 48.5854 96.0311 51.4696 94.1983 52.4172C92.5498 53.5751 90.9169 50.7298 92.5836 49.7485Z" fill="#3F2E39"/>
<path d="M107.646 49.7562C109.385 48.6114 111.003 51.4618 109.243 52.3964C107.599 53.5647 105.878 50.683 107.646 49.7562Z" fill="#3F2E39"/>
<path d="M159.045 54.8627C159.539 50.7324 165.73 49.5408 168.132 52.6509C168.911 54.6862 166.455 55.8959 165.016 56.7656C162.714 57.9209 160.655 59.4785 158.433 60.7584C159.014 58.8373 159.025 56.8539 159.045 54.8627Z" fill="#FDAB2B"/>
<path d="M33.51 52.9598C35.9581 49.8237 41.968 50.9634 42.5963 55.0912C42.5807 57.3082 42.7312 59.4915 43.4374 61.6047C40.6933 59.8679 37.9415 58.0896 35.2416 56.2646C34.2888 55.4754 32.8195 54.3383 33.51 52.9598Z" fill="#FDAB2B"/>
<path d="M89.2242 53.6971C90.7819 53.3881 94.0685 53.4219 93.6661 55.7532C92.1837 57.3108 89.0503 57.4666 87.5264 55.9089C86.7683 54.6966 88.1936 53.8788 89.2242 53.6971Z" fill="#D9864E"/>
<path d="M109.723 53.6763C111.319 53.4297 114.245 53.4167 114.432 55.4935C113.349 57.6768 109.834 57.4354 108.248 55.9375C107.218 54.9562 108.664 53.6997 109.723 53.6763Z" fill="#D9864E"/>
<path d="M148.923 63.5206C149.933 62.6509 152.241 63.3674 151 64.7953C146.847 67.5341 143.212 71.0258 139.533 74.3124C141.935 70.1925 144.861 66.14 148.923 63.5206Z" fill="#FFFFFE"/>
<path d="M92.7938 63.8633C95.9091 69.8342 105.886 69.9173 108.778 63.6712C108.555 67.0045 107.615 72.2252 103.344 72.2096C103.915 71.5995 105.161 70.7195 104.087 69.9277C101.796 69.6837 99.4852 69.6837 97.1942 69.9277C96.6178 70.9661 97.7861 71.4438 98.2118 72.1785C93.9621 72.3758 92.8509 67.1758 92.7938 63.8633Z" fill="#FED485"/>
<path d="M49.6654 65.7298C48.7022 64.1722 51.1192 63.7958 51.9863 64.707C55.7531 67.5263 58.4557 71.558 60.7584 75.6105C57.1732 72.233 53.5984 68.7413 49.6654 65.7298Z" fill="#FFFFFE"/>
<path d="M95.1147 64.5019C98.8401 64.6161 102.773 64.3669 106.397 64.681C104.022 67.9313 97.2565 67.9599 95.1147 64.5019Z" fill="#FFFFFE"/>
<path d="M13.0997 68.1052C29.281 73.5154 44.9379 81.6204 57.5756 93.1521L56.9655 93.5649C42.913 84.5254 26.9108 78.8608 10.6439 75.4599C11.2384 72.9495 12.1548 70.5092 13.0997 68.1052Z" fill="#FFFFFE"/>
<path d="M141.797 93.718C154.871 81.2439 171.571 73.0118 188.822 68.017C189.861 70.4573 190.899 72.9988 191.379 75.6079C173.787 77.8109 156.955 84.1021 142.231 93.9776L141.797 93.718Z" fill="#FFFFFE"/>
<path d="M88.6323 73.7828C92.4719 78.5856 99.0166 80.8208 104.972 79.2346C102.482 82.1681 98.1288 81.7086 95.0654 80.0134C96.5088 82.0903 99.1308 82.664 100.917 84.3151C103.152 87.041 105.123 90.286 108.705 91.4153C104.455 93.2533 99.5903 93.2793 95.0758 92.5446C90.9221 91.9631 85.6261 89.3878 85.7871 84.515C90.1718 82.8665 87.9003 77.2875 88.6323 73.7828Z" fill="#FED485"/>
<path d="M104.972 79.2346C107.755 78.1416 110.374 76.584 112.41 74.3358C112.929 77.6588 110.974 82.2019 114.266 84.4605C114.616 87.8068 111.67 90.5067 108.713 91.392C105.13 90.2653 103.16 87.0176 100.925 84.2917C99.1386 82.6406 96.5114 82.0643 95.0732 79.99C98.1313 81.7086 102.482 82.1681 104.972 79.2346Z" fill="#D9864E"/>
<path d="M10.5192 75.4184L10.6335 75.4599C26.9108 78.8608 42.913 84.5254 56.9655 93.5649C51.4177 98.6376 46.8071 105.727 47.0199 113.492C47.9805 117.052 44.7432 119.705 43.6035 122.82C36.3216 119.385 28.1725 117.506 20.1065 118.017C18.4762 117.963 18.31 120.725 20.0416 120.567C27.7935 119.938 35.5947 121.465 42.8299 124.201C43.3231 124.907 44.7847 125.26 44.2941 126.312C41.9914 133.272 40.9893 140.551 39.6835 147.734C38.7645 153.861 41.4228 160.572 46.7993 163.848C52.1498 167.241 58.7594 167.498 64.9094 167.343C65.0652 168.393 65.0652 169.46 64.9094 170.51C60.3611 170.51 55.7323 171.325 51.2983 171.618C51.441 167.41 46.4202 164.349 42.7079 166.237C42.0277 166.756 41.3683 166.008 41.1009 165.424C45.1715 160.271 38.4218 152.558 32.8324 156.226C30.4596 152.823 24.8859 152.293 22.3132 155.738C13.2088 142.394 7.91019 126.462 6.82763 110.359C15.2311 109.037 23.728 110.66 31.7499 113.215C24.4809 108.155 15.3038 106.657 6.60178 106.849C6.05141 96.2336 7.64799 85.6131 10.5192 75.4184Z" fill="#FED485"/>
<path d="M142.231 93.9777C156.955 84.1012 173.787 77.8091 191.379 75.6053L191.556 75.678C194.582 85.8186 195.873 96.3976 195.375 106.968C185.964 106.138 176.065 108.152 168.017 113.189C176.704 110.53 185.93 108.648 195.017 110.169C195.063 110.489 195.102 110.811 195.131 111.138C193.555 130.297 186.019 149.014 173.713 163.812C172.086 161.686 169.121 161.276 166.766 162.332C164.022 160.479 160.123 161.623 158.646 164.531C155.463 163.267 151.478 165.673 151.636 169.227C150.831 169.796 150.251 170.629 149.998 171.582C144.518 171.283 138.962 170.128 133.513 170.245C133.451 169.292 133.298 168.29 133.513 167.363C141.486 167.706 151.187 166.608 155.764 159.139C158.576 154.567 158.443 148.879 157.205 143.822C156.426 137.926 155.312 132.062 153.57 126.366C153.111 125.18 154.964 125.068 155.128 124.014C164.02 121.158 173.477 119.731 182.805 120.712C184.736 120.317 183.43 117.617 181.766 117.945C172.522 117.254 162.763 118.7 154.521 123.048C153.428 120.564 152.101 118.183 150.992 115.709C152.314 107.54 147.976 99.5332 142.231 93.9777Z" fill="#FED485"/>
<path d="M82.6873 85.2601C83.7388 87.2902 84.6811 90.6002 87.1759 92.0618C93.7102 96.3634 102.446 96.2778 109.658 93.8297C111.359 93.2436 112.901 92.2726 114.165 90.9924C115.429 89.7122 116.381 88.1573 116.945 86.4491C116.945 87.9704 117.09 89.5903 116.628 91.0493C111.317 97.5836 102.664 100.011 94.5618 100.359C101.987 101.613 109.445 99.3723 116.177 96.4647C115.338 103.773 114.515 111.109 113.199 118.347C111.677 118.887 110.071 119.15 108.456 119.126C107.617 114.466 106.049 109.941 105.629 105.206C105.543 104.167 104.268 104.988 103.765 105.273C99.0504 108.793 95.9584 114.032 93.7128 119.375C90.9922 119.18 88.2066 119.115 85.5794 118.337C84.219 107.399 82.355 96.3141 82.6873 85.2601Z" fill="#FFFFFE"/>
<path d="M75.1068 88.3598C76.7031 87.5649 78.342 86.8585 80.016 86.244C80.3042 96.4673 81.6671 106.636 82.8197 116.794C81.2881 116.794 79.7564 116.794 78.2247 116.794C76.9215 107.386 75.0445 97.8951 75.1068 88.3598Z" fill="#FDAB2B"/>
<path d="M119.489 86.2881C121.133 86.8878 122.688 87.7211 124.274 88.4506C124.409 89.7713 124.362 91.1041 124.136 92.4122C122.514 93.6739 120.728 94.7642 118.752 95.3691C119.102 92.3499 119.287 89.3177 119.489 86.2881Z" fill="#CA6F2A"/>
<path d="M158.957 94.4969C164.321 91.7035 170.364 89.4968 176.499 89.7539C177.748 89.5903 178.017 91.4127 176.758 91.5529C170.704 91.4673 164.759 92.921 158.957 94.4969Z" fill="#FDAB2B"/>
<path d="M25.4207 90.0316C31.0853 90.338 36.4618 92.7601 41.319 95.5716C36.2697 93.9335 31.1528 92.1111 25.8049 91.8359C24.3485 92.0695 23.6917 90.1329 25.4207 90.0316Z" fill="#FDAB2B"/>
<path d="M57.5834 96.5244C61.558 92.3162 67.7678 92.9574 72.503 90.1043C73.1468 100.125 74.9459 110.029 76.0752 119.993C75.2652 127.727 73.9568 136.397 67.8456 141.852C67.6587 132.316 67.6977 122.768 67.7418 113.233C67.1084 115.05 66.8098 116.971 66.275 118.814C65.0808 116.813 64.4941 114.388 62.869 112.672C60.8207 112.192 60.9064 114.489 61.9396 115.543C61.8617 118.819 61.6566 122.184 60.5663 125.299C58.8607 125.014 56.8539 122.01 55.3741 123.931C55.7168 125.86 58.2999 126.268 59.7589 127.244C59.3668 128.133 59.0313 129.046 58.7542 129.977C54.2578 128.578 49.912 126.397 46.2931 123.381C47.4639 120.904 48.993 118.57 50.0288 116.052C48.3673 108.739 52.4951 101.485 57.5834 96.5244Z" fill="#FFFFFE"/>
<path d="M126.797 90.0602C131.27 92.9159 137.371 92.4953 141.016 96.6178C145.333 104.951 146.81 114.51 146.727 123.819C146.545 123.682 146.364 123.56 146.185 123.417C146.281 124.547 146.543 125.658 146.963 126.711C142.81 129.061 138.093 130.73 133.256 130.559C132.415 124.928 133.98 119.396 136.945 114.611C137.968 113.49 136.125 111.984 135.177 113.105C133.879 114.923 133.1 117.057 132.007 118.993C131.688 117.023 131.125 115.099 130.826 113.131C130.743 112.56 130.803 111.929 130.481 111.426C129.282 117.534 127.158 123.424 124.183 128.892C123.483 126.137 122.985 123.334 122.693 120.507C123.89 110.333 126.138 100.291 126.797 90.0602Z" fill="#FFFFFE"/>
<path d="M94.554 100.361C102.664 100.014 111.317 97.5862 116.621 91.0519C116.73 92.8691 116.312 94.6552 116.286 96.4647H116.161C109.437 99.3749 101.979 101.615 94.554 100.361Z" fill="#CDBDA6"/>
<path d="M118.752 95.3691C120.717 94.7565 122.514 93.6739 124.136 92.42C123.49 100.616 121.867 108.713 120.699 116.846C119.211 117 117.503 116.8 115.959 116.626C117.033 109.554 117.861 102.443 118.752 95.3691Z" fill="#FDAB2B"/>
<path d="M141.016 96.6179C145.577 100.746 148.858 107.002 148.521 113.266C147.309 117.077 150.686 120.091 151.665 123.555C150.209 124.763 148.635 125.82 146.966 126.711C146.546 125.658 146.283 124.547 146.187 123.417C146.366 123.549 146.548 123.677 146.73 123.819C146.81 114.51 145.333 104.951 141.016 96.6179Z" fill="#CDBDA6"/>
<path d="M6.59143 106.841C15.2934 106.649 24.4654 108.139 31.7395 113.207C23.7281 110.66 15.2311 109.037 6.81729 110.351C6.67355 109.186 6.59814 108.015 6.59143 106.841Z" fill="#FDAB2B"/>
<path d="M168.017 113.189C176.065 108.165 185.964 106.151 195.375 106.987C195.388 108.375 195.309 109.762 195.139 111.14C195.11 110.813 195.071 110.491 195.024 110.172C185.941 108.635 176.704 110.517 168.017 113.189Z" fill="#FDAB2B"/>
<path d="M94.3852 125.468C95.556 118.874 98.8479 112.111 103.856 107.794C104.858 114.962 108.105 121.994 106.805 129.341C106.07 131.852 105.143 134.593 103.23 136.426C103.767 130.081 102.192 123.991 100.688 117.903C98.7907 123.355 99.5306 129.18 99.5722 134.829C99.5722 135.515 99.5514 136.203 99.4787 136.888C95.3354 135.011 93.4402 129.842 94.3852 125.468Z" fill="#A9CD70"/>
<path d="M130.484 111.426C130.805 111.929 130.743 112.56 130.829 113.131C130.05 122.355 130.982 131.748 130.369 141.018C127.199 137.706 125.258 133.303 124.185 128.892C127.161 123.424 129.285 117.534 130.484 111.426Z" fill="#CDBDA6"/>
<path d="M61.9395 115.543C64.7952 120.136 65.574 125.548 64.9588 130.86C62.8819 130.86 60.7402 130.67 58.7672 129.975C59.0442 129.043 59.3798 128.13 59.7718 127.241C61.0283 127.81 64.0813 129.432 64.1851 127.036C63.5491 125.857 61.6851 125.998 60.5766 125.297C61.6566 122.184 61.8617 118.819 61.9395 115.543Z" fill="#CDBDA6"/>
<path d="M154.552 123.054C162.794 118.705 172.553 117.259 181.797 117.95C183.448 117.623 184.754 120.323 182.836 120.717C173.508 119.736 164.051 121.156 155.159 124.019C154.726 123.892 154.694 123.401 154.552 123.054Z" fill="#FDAB2B"/>
<path d="M20.0416 120.567C18.3101 120.725 18.484 117.971 20.1065 118.017C28.1725 117.498 36.3216 119.385 43.6035 122.82C43.4192 123.308 43.2894 123.908 42.8247 124.209C35.5947 121.465 27.7935 119.938 20.0416 120.567Z" fill="#FDAB2B"/>
<path d="M80.1095 118.002C82.2408 117.199 83.0197 120.933 80.813 121.117C78.8556 121.571 78.2611 118.446 80.1095 118.002Z" fill="#FFFFFE"/>
<path d="M99.5722 134.832C99.5306 129.183 98.7933 123.365 100.688 117.906C102.192 123.993 103.767 130.084 103.23 136.429V136.522C101.413 138.303 102.667 141.493 102.028 143.827C101.719 143.847 101.41 143.847 101.101 143.827C101.177 138.134 101.4 132.405 100.756 126.74C99.8188 129.214 99.8136 132.14 99.5722 134.832Z" fill="#829A58"/>
<path d="M117.776 118.02C119.866 117.314 120.655 120.985 118.451 121.117C116.522 121.519 115.901 118.435 117.776 118.02Z" fill="#FFFFFE"/>
<path d="M108.936 121.634C110.787 121.322 112.646 121.062 114.474 120.626C115.195 123.191 118.321 124.261 120.522 122.81C121.327 127.176 122.096 131.68 123.936 135.79C123.277 136.255 122.612 136.706 121.95 137.166C119.77 135.894 116.997 136.992 114.564 136.724C115.406 133.731 116.382 130.211 115.535 127.275C112.976 127.973 110.935 129.832 108.744 131.244C109.463 128.093 109.401 124.827 108.936 121.634Z" fill="#FDAB2B"/>
<path d="M78.043 122.61C80.1536 124.378 83.4402 123.305 84.1671 120.673C87.0781 121.237 90.0205 121.625 92.9781 121.836C92.4829 123.916 92.1805 126.037 92.0747 128.173C88.6817 128.095 85.3898 127.116 82.0824 126.486C85.1302 128.409 88.6842 129.419 92.1889 130.146C92.7601 134.212 95.7845 137.233 99.1308 139.289C99.2049 140.147 99.1656 141.01 99.014 141.857C95.2964 136.924 88.9361 134.588 82.8898 134.78C81.9786 135.001 81.5918 136.117 82.0461 136.909C83.1648 139.28 84.8347 141.35 86.9163 142.945C85.247 144.585 82.5705 145.24 81.6619 147.589C80.7948 148.794 81.1427 151.281 79.219 151.32C74.8368 151.61 70.6052 149.643 67.1187 147.15C66.8591 146.055 68.4167 145.395 68.9879 144.528C74.9017 138.817 77.4433 130.624 78.043 122.61Z" fill="#FDAB2B"/>
<path d="M55.3871 123.931C56.8539 122.01 58.8606 125.014 60.5792 125.299C61.6877 126.013 63.5517 125.86 64.1878 127.039C64.0943 129.435 61.0413 127.817 59.7744 127.244C58.3129 126.265 55.7298 125.86 55.3871 123.931Z" fill="#3F2E39"/>
<path d="M142.145 123.173C143.1 122.833 143.882 124.211 143.007 124.822C140.781 126.464 138.232 127.614 135.528 128.196C134.25 128.674 133.71 126.293 135.032 126.192C137.592 125.65 139.868 124.38 142.145 123.173Z" fill="#3F2E39"/>
<path d="M46.7941 127.044C50.9478 129.977 55.709 131.917 60.5896 133.233C59.424 136.847 57.0096 141.314 52.7287 141.46C52.2064 141.479 51.686 141.533 51.1711 141.623C51.5839 141.795 52.0148 141.914 52.4354 142.067C50.7739 142.862 48.871 143.326 47.5028 144.64C53.5569 143.521 60.1431 144.331 64.816 148.672C69.0476 151.787 74.2112 154.014 79.5513 153.739C79.4267 155.242 78.9594 156.704 78.9827 158.223C81.9033 155.458 82.2927 151.12 84.1437 147.737C87.4641 145.359 91.4335 141.312 95.7819 143.929C97.4096 144.798 100.761 146.309 99.4164 148.539C96.2778 148.42 92.9262 146.649 89.7357 147.869C88.9283 148.363 89.5747 149.557 90.4054 149.544C93.5908 149.557 96.8956 149.894 99.785 151.361C101.148 151.937 100.735 154.383 99.2295 154.341C96.392 154.235 93.5597 153.433 90.717 153.822C89.7642 153.968 89.7071 155.411 90.6806 155.585C93.4117 156.143 96.2881 155.845 98.988 156.553C100.177 156.922 99.9694 158.747 98.8712 159.103C96.5192 159.682 94.0659 159.284 91.6775 159.448C90.7144 159.43 90.5768 161.034 91.4698 161.231C93.5467 161.839 95.7585 161.231 97.8665 161.59C97.812 164.445 93.9517 164.051 91.9449 164.09C88.0508 163.872 83.679 166.096 80.2496 163.329C70.3275 164.134 59.79 166.649 50.1846 162.81C44.4966 160.473 41.2152 154.066 42.1809 148.067C43.6633 141.042 44.2811 133.794 46.7941 127.044Z" fill="#FED485"/>
<path d="M134.266 133.267C140.346 132.991 146.081 130.491 151.14 127.244C152.921 132.787 154.064 138.516 154.546 144.318C153.287 149.679 149.354 154.061 144.435 156.392C135.738 160.767 124.871 159.931 116.823 154.497C116.657 153.718 117.602 153.996 118.077 153.861C123.71 153.536 129.117 151.535 133.604 148.113C137.802 144.437 143.679 143.412 149.014 144.601C149.554 143.303 147.976 142.745 147.026 142.467C147.35 141.873 148.454 142.127 149.084 141.948C145.709 140.808 142.049 141.769 138.718 142.579C136.465 139.954 135.063 136.613 134.266 133.267Z" fill="#FED485"/>
<path d="M23.4892 128.697C28.4217 128.373 28.8111 136.288 23.9046 136.519C18.8215 137.072 18.3178 128.622 23.4892 128.697Z" fill="#FDAB2B"/>
<path d="M177.231 128.672C180.777 128.337 182.836 133.344 179.897 135.499C177.779 137.516 173.882 136.063 173.474 133.225C172.958 130.933 174.949 128.708 177.231 128.672Z" fill="#FDAB2B"/>
<path d="M107.038 138.609C108.077 135.131 110.621 131.473 113.91 130.128C113.781 132.564 113.08 134.936 111.865 137.052C110.245 137.524 108.591 137.919 107.038 138.609Z" fill="#A9CD70"/>
<path d="M60.5896 133.233C61.628 133.29 62.6665 133.399 63.6867 133.531C63.1675 136.792 61.6099 140.021 59.681 142.719C57.438 142.091 55.1197 141.299 52.7287 141.46C57.0096 141.314 59.424 136.847 60.5896 133.233Z" fill="#D9864E"/>
<path d="M123.936 135.798C125.907 139.682 128.503 143.216 131.621 146.257C127.594 149.65 122.176 151.351 116.94 151.59C117.142 148.391 121.291 147.361 121.919 144.388C121.675 142.277 119.089 143.267 117.682 142.846C119.5 141.351 121.652 139.663 121.958 137.174C122.612 136.714 123.277 136.262 123.936 135.798Z" fill="#CA6F2A"/>
<path d="M84.2294 136.652C88.7466 137.015 93.4039 138.617 96.4309 142.104C94.0762 141.234 91.5034 141.15 89.0971 141.865C87.0352 140.596 85.3536 138.796 84.2294 136.652Z" fill="#A9CD70"/>
<path d="M62.2018 143.848C63.2117 142.166 64.019 140.372 64.9354 138.64C65.0644 140.906 65.0739 143.178 64.964 145.445C63.936 145.136 63.0689 144.453 62.2018 143.848Z" fill="#FED485"/>
<path d="M103.843 143.866C107.241 139.012 113.845 138.588 119.279 138.648C115.837 143.84 109.406 143.96 103.843 143.866Z" fill="#A9CD70"/>
<path d="M133.308 138.669C134.144 140.356 135.058 142.001 136.05 143.601C135.349 144.069 134.017 145.484 133.355 144.292C133.147 142.436 133.295 140.541 133.308 138.669Z" fill="#FED485"/>
<path d="M154.541 144.318C155.896 148.942 156.073 154.463 153.09 158.529C150.735 161.904 146.719 163.646 142.763 164.274C134.627 165.331 126.28 164.697 118.24 163.303C117.955 160.255 117.578 157.311 116.831 154.497C124.879 159.931 135.738 160.767 144.43 156.392C149.349 154.061 153.282 149.679 154.541 144.318Z" fill="#D9864E"/>
<path d="M101.358 146.034C107.236 146.198 113.108 145.813 118.954 145.224C117.443 146.543 115.865 147.885 114.821 149.617C114.468 152.683 114.681 155.847 114.009 158.859C111.073 164.663 106.221 170.845 99.4528 171.743C96.2726 171.2 92.9963 169.326 91.7398 166.226C92.1292 166.281 92.5654 166.26 92.9107 166.486C96.7554 170.05 102.796 167.005 105.481 163.371C106.213 162.539 106.615 161.468 106.609 160.36C106.604 159.252 106.192 158.185 105.452 157.361C107.719 154.188 105.522 149.894 101.763 149.432C102.007 148.267 101.724 147.132 101.358 146.034Z" fill="#FDAB2B"/>
<path d="M101.537 149.354L101.763 149.43C105.522 149.892 107.719 154.186 105.452 157.358C106.192 158.182 106.604 159.25 106.609 160.358C106.615 161.465 106.213 162.537 105.481 163.368C102.796 167.002 96.7554 170.045 92.9106 166.483C96.0078 166.462 100.769 165.11 99.8993 161.07C100.342 160.837 100.734 160.517 101.051 160.129C101.368 159.742 101.605 159.295 101.747 158.815C101.888 158.334 101.933 157.831 101.877 157.333C101.821 156.835 101.666 156.354 101.421 155.917C103.414 154.069 102.516 151.32 101.537 149.354Z" fill="#CA6F2A"/>
<path d="M23.4243 157.392C25.2416 153.576 30.9218 155.016 32.2509 158.524C34.3148 156.629 38.0713 156.478 39.6705 159.043C41.2437 161.159 40.522 164.147 38.5153 165.686C39.7899 166.613 40.8309 167.789 41.3554 169.303C43.7567 165.767 50.1638 167.636 49.5927 172.086C47.5989 172.402 45.6389 172.895 43.6685 173.329C41.223 171.647 38.7982 169.609 35.6336 169.326C34.0942 166 31.3216 162.563 27.3028 162.576C25.753 161.172 24.4861 159.214 23.4243 157.392Z" fill="#A9CD70"/>
<path d="M99.4528 171.743C106.218 170.845 111.073 164.663 114.009 158.859C114.637 166.686 107.041 173.093 99.4528 171.743Z" fill="#CA6F2A"/>
<path d="M109.31 172.231C111.142 171.168 112.702 169.695 113.867 167.928C115.033 166.16 115.773 164.146 116.029 162.044C117.527 166.841 113.967 171.429 109.31 172.231Z" fill="#D9864E"/>
<path d="M27.308 162.579C31.3267 162.558 34.0993 165.995 35.6388 169.329C38.8034 169.611 41.2281 171.649 43.6736 173.332C40.9114 174.258 37.0225 175.297 36.0957 171.439C32.6585 169.406 29.6523 165.951 27.308 162.579Z" fill="#829A58"/>
<path d="M159.848 166.668C160.17 163.324 164.692 161.777 166.727 164.606C168.254 162.893 171.4 163.072 172.459 165.162C171.782 166.239 170.917 167.337 169.863 168.054C166.813 168.09 163.415 168.757 161.421 171.281C160.708 171.985 160.04 172.733 159.422 173.521C156.826 173.082 154.261 172.444 151.634 172.117C151.688 170.795 154.022 170.878 153.415 169.321C153.132 165.889 157.522 165.048 159.848 166.668Z" fill="#A9CD70"/>
<path d="M161.426 171.276C163.42 168.752 166.818 168.085 169.868 168.049C168.972 169.229 167.906 170.27 166.704 171.138C164.985 170.445 163.142 170.725 161.426 171.276Z" fill="#829A58"/>
<path d="M75.0653 169.214C78.2792 167.945 82.002 170.04 82.8665 173.324C84.9771 171.629 89.097 171.636 89.9278 174.689C87.7341 174.116 85.4288 174.388 83.2325 173.874C80.26 172.784 78.4012 169.417 75.0653 169.214Z" fill="#829A58"/>
<path d="M120.458 173.127C121.756 167.542 130.559 167.516 131.932 173.028C135.356 169.837 141.631 173.602 139.996 178.134C138.09 179.586 135.522 179.84 133.246 180.297C128.074 179.014 122.677 179.928 117.734 181.665C114.915 179.806 111.623 178.864 108.469 177.893C109.048 175.956 111.145 175.297 112.976 175.505C113.604 171.925 117.789 171.577 120.458 173.127Z" fill="#A9CD70"/>
<path d="M71.4256 173.158C71.8176 171.32 73.2195 169.679 75.0601 169.204C78.3935 169.406 80.2522 172.773 83.2273 173.877C85.4236 174.396 87.7289 174.118 89.9226 174.692C90.7144 176.769 94.3878 174.965 94.8551 177.862C91.745 178.815 88.6907 179.942 85.7066 181.237C79.861 179.363 73.5922 179.258 67.6873 180.936C66.6696 180.557 65.5793 180.585 64.5279 180.401C63.7984 179.648 63.4764 178.612 63.2116 177.623C62.1992 173.14 68.1935 170.216 71.4256 173.158Z" fill="#A9CD70"/>
<path d="M161.299 173.937C161.896 172.452 163.983 171.813 165.434 172.431C164.518 173.711 162.893 175.235 161.299 173.937Z" fill="#A9CD70"/>
<path d="M40.4987 176.333C47.7469 174.092 55.3196 173.116 62.8612 172.491C61.9552 173.744 61.6696 175.263 61.1997 176.675C56.6358 177.862 52.4016 180.068 48.3621 182.387C45.5496 180.63 42.9159 178.603 40.4987 176.333Z" fill="#A9CD70"/>
<path d="M140.494 172.537C145.92 173.191 151.34 173.939 156.691 175.074C156.691 175.175 156.691 175.377 156.691 175.481C153.731 176.948 150.437 177.501 147.226 178.142C145.51 177.662 143.851 176.945 142.122 176.494C141.8 175.087 141.369 173.711 140.494 172.537Z" fill="#A9CD70"/>
<path d="M156.691 175.074C158.248 175.46 159.853 175.728 161.343 176.333C159.058 178.574 156.505 180.523 153.742 182.138C151.74 180.546 149.406 179.451 147.239 178.142C150.45 177.501 153.744 176.948 156.704 175.481C156.701 175.377 156.696 175.175 156.691 175.074Z" fill="#829A58"/>
<path d="M63.2272 177.61C63.4868 178.599 63.8139 179.635 64.5434 180.388C65.5819 180.572 66.6852 180.544 67.7028 180.923C63.7215 182.549 59.9834 184.716 56.5943 187.363C54.3175 186.431 52.2225 184.939 50.1716 183.563C54.0303 180.865 58.4414 179.062 63.0844 178.282C63.1286 178.116 63.1935 177.779 63.2272 177.61Z" fill="#829A58"/>
<path d="M86.5451 181.652C95.5509 176.81 107.327 176.312 116.218 181.675C117.192 182.14 116.026 182.823 115.439 182.405C107.199 178.101 96.9735 178.103 88.5908 182.031C87.9106 182.504 87.1734 181.935 86.5451 181.652Z" fill="#A9CD70"/>
<path d="M133.225 180.297C135.51 179.84 138.077 179.586 139.975 178.134C144.391 178.728 148.579 180.455 152.13 183.147C150.572 184.666 148.287 185.902 146.283 186.868C142.446 183.802 138.137 181.122 133.225 180.297Z" fill="#829A58"/>
<path d="M91.1765 183.848C97.407 180.58 106.506 180.253 112.153 184.321C106.6 182.213 100.361 181.429 94.6085 183.365C93.4766 183.589 92.3006 184.625 91.1765 183.848Z" fill="#A9CD70"/>
<path d="M96.3141 184.9C99.2399 183.464 102.955 183.308 105.971 184.609C102.804 183.776 99.4839 184.178 96.3141 184.9Z" fill="#A9CD70"/>
<path d="M66.3814 188.14C72.8093 183.815 81.6229 184.373 87.9028 188.69C88.5934 189.3 90.0108 189.728 89.881 190.816C83.7309 186.159 74.8991 184.123 67.9027 188.314C66.5398 188.833 65.6415 190.222 64.2345 190.564C63.9801 189.295 65.5922 188.817 66.3814 188.14Z" fill="#829A58"/>
<path d="M115.328 190.858C120.912 183.885 134.494 182.81 140.25 190.313C139.032 190.144 138.313 188.947 137.241 188.433C131.011 184.479 122.599 185.738 116.929 190.136C116.439 190.458 115.982 191.071 115.328 190.858Z" fill="#829A58"/>
</g>
<path d="M317.52 63.2V113C317.52 121.4 316.48 128.16 314.4 133.28C312.32 138.32 308.88 142 304.08 144.32C299.36 146.56 293.04 147.68 285.12 147.68C276.72 147.68 270 146.56 264.96 144.32C259.92 142 256.28 138.32 254.04 133.28C251.8 128.16 250.68 121.4 250.68 113V63.2H269.04V113C269.04 118.2 269.48 122.28 270.36 125.24C271.32 128.12 272.92 130.16 275.16 131.36C277.4 132.56 280.4 133.16 284.16 133.16C287.92 133.16 290.88 132.56 293.04 131.36C295.28 130.16 296.84 128.12 297.72 125.24C298.68 122.28 299.16 118.2 299.16 113V63.2H317.52ZM362.706 98.96L383.106 99.08L350.346 133.88L329.946 133.76L362.706 98.96ZM383.706 133.76V146H329.946V133.76H383.706ZM383.106 86.72V99.08H330.426V86.72H383.106ZM436.91 85.16C448.11 85.16 453.71 90.64 453.71 101.6V146H435.83V107.12C435.83 104.48 435.35 102.68 434.39 101.72C433.51 100.68 431.91 100.16 429.59 100.16C427.03 100.16 424.39 100.64 421.67 101.6C418.95 102.56 415.59 104.12 411.59 106.28L410.03 97.04C414.43 93.2 418.91 90.28 423.47 88.28C428.03 86.2 432.51 85.16 436.91 85.16ZM413.39 62L413.51 82.52C413.51 85.64 413.31 88.6 412.91 91.4C412.59 94.2 412.19 96.56 411.71 98.48L413.39 100.04V146H395.63V62H413.39ZM499.02 85.16C503.98 85.16 508.18 85.84 511.62 87.2C515.06 88.48 517.66 90.72 519.42 93.92C521.26 97.04 522.18 101.36 522.18 106.88V146H508.02L505.5 133.16L504.3 131.36V106.76C504.3 103.96 503.62 101.92 502.26 100.64C500.98 99.36 498.5 98.72 494.82 98.72C491.78 98.72 487.98 98.84 483.42 99.08C478.86 99.24 474.18 99.48 469.38 99.8L467.7 88.04C470.58 87.48 473.9 87 477.66 86.6C481.42 86.2 485.18 85.88 488.94 85.64C492.7 85.32 496.06 85.16 499.02 85.16ZM514.86 109.52L514.74 119.48L488.34 119.6C486.18 119.6 484.62 120.12 483.66 121.16C482.78 122.2 482.34 123.6 482.34 125.36V128.24C482.34 130.24 482.9 131.8 484.02 132.92C485.14 133.96 486.94 134.48 489.42 134.48C491.5 134.48 493.74 134.04 496.14 133.16C498.62 132.28 501.06 131.04 503.46 129.44C505.86 127.84 507.98 125.96 509.82 123.8V131.48C509.1 132.68 508.02 134.2 506.58 136.04C505.22 137.8 503.46 139.56 501.3 141.32C499.14 143 496.62 144.44 493.74 145.64C490.86 146.84 487.58 147.44 483.9 147.44C480.3 147.44 477.06 146.8 474.18 145.52C471.3 144.24 469.02 142.36 467.34 139.88C465.66 137.4 464.82 134.32 464.82 130.64V124.52C464.82 119.8 466.42 116.12 469.62 113.48C472.82 110.84 477.22 109.52 482.82 109.52H514.86ZM595.429 86.72L575.869 141.8C575.389 143.08 574.629 144.12 573.589 144.92C572.629 145.64 571.469 146 570.109 146H554.629C553.269 146 552.069 145.64 551.029 144.92C550.069 144.12 549.349 143.08 548.869 141.8L529.309 86.72H548.149L559.069 123.8C559.549 125.56 559.989 127.36 560.389 129.2C560.789 131.04 561.189 132.8 561.589 134.48H563.149C563.629 132.72 564.069 130.96 564.469 129.2C564.949 127.36 565.429 125.56 565.909 123.8L576.589 86.72H595.429ZM634.02 85.16C638.98 85.16 643.18 85.84 646.62 87.2C650.06 88.48 652.66 90.72 654.42 93.92C656.26 97.04 657.18 101.36 657.18 106.88V146H643.02L640.5 133.16L639.3 131.36V106.76C639.3 103.96 638.62 101.92 637.26 100.64C635.98 99.36 633.5 98.72 629.82 98.72C626.78 98.72 622.98 98.84 618.42 99.08C613.86 99.24 609.18 99.48 604.38 99.8L602.7 88.04C605.58 87.48 608.9 87 612.66 86.6C616.42 86.2 620.18 85.88 623.94 85.64C627.7 85.32 631.06 85.16 634.02 85.16ZM649.86 109.52L649.74 119.48L623.34 119.6C621.18 119.6 619.62 120.12 618.66 121.16C617.78 122.2 617.34 123.6 617.34 125.36V128.24C617.34 130.24 617.9 131.8 619.02 132.92C620.14 133.96 621.94 134.48 624.42 134.48C626.5 134.48 628.74 134.04 631.14 133.16C633.62 132.28 636.06 131.04 638.46 129.44C640.86 127.84 642.98 125.96 644.82 123.8V131.48C644.1 132.68 643.02 134.2 641.58 136.04C640.22 137.8 638.46 139.56 636.3 141.32C634.14 143 631.62 144.44 628.74 145.64C625.86 146.84 622.58 147.44 618.9 147.44C615.3 147.44 612.06 146.8 609.18 145.52C606.3 144.24 604.02 142.36 602.34 139.88C600.66 137.4 599.82 134.32 599.82 130.64V124.52C599.82 119.8 601.42 116.12 604.62 113.48C607.82 110.84 612.22 109.52 617.82 109.52H649.86ZM712.418 85.16C723.618 85.16 729.218 90.64 729.218 101.6V146H711.458V107.12C711.458 104.48 710.978 102.68 710.018 101.72C709.058 100.68 707.418 100.16 705.098 100.16C702.538 100.16 699.898 100.68 697.178 101.72C694.458 102.68 691.098 104.2 687.098 106.28L686.258 96.32C690.498 92.72 694.818 89.96 699.217 88.04C703.698 86.12 708.098 85.16 712.418 85.16ZM685.418 86.72L687.458 98.48L688.898 100.04V146H671.138V86.72H685.418Z" fill="#3F2E39"/>
<defs>
<clipPath id="clip0_1_101">
<rect width="202" height="205.853" fill="white"/>
</clipPath>
</defs>
</svg>
